# xmcd
#
# Track frame offsets:
#	150
#	19257
#	44147
#	62813
#	81117
#	93121
#	110894
#	127093
#	142077
#	160099
#	171704
#	195677
#
# Disc length: 2815 seconds
#
# Revision: 0
# Processed by: cddbd v1.4PL0 Copyright (c) Steve Scherf et al.
# Submitted via: EasyCDDAExtractor 4.6.9.1
#
DISCID=b60afd0c
DTITLE=Jorge Fernando - Ineditos
DYEAR=1900
DGENRE=
TTITLE0=Quebranto
TTITLE1=Desespero
TTITLE2=Um dia
TTITLE3=Atlantico
TTITLE4=Ouco bater a porta
TTITLE5=Bendito amor
TTITLE6=Questao
TTITLE7=Endeixa
TTITLE8=Rubra cor
TTITLE9=Rosa Cor
TTITLE10=Desespero
TTITLE11=Natal
EXTD=
EXTT0=
EXTT1=
EXTT2=
EXTT3=
EXTT4=
EXTT5=
EXTT6=
EXTT7=
EXTT8=
EXTT9=
EXTT10=
EXTT11=
PLAYORDER=
